<svg width="173" height="291" viewBox="0 0 173 291" fill="none" xmlns="http://www.w3.org/2000/svg">
<path d="M6.5 114.5L2 94.5L20 91.5V89H2L4 65L22 69L22.5 66L6 59.5L17 38L31 48L32.5 46L20 35L36 18.5L46.5 31.5L49 29.5L39.5 16.5L59.5 5.5L66 16.5L68.5 15.5L64.5 4.5L93.5 0.5L91 9L94.5 9.5L99 2L124 8L114.5 21L118.5 23.5L129 11L150.5 25.5L134.5 42C134.333 42.3333 134.4 43.5 136 45.5C137.6 47.5 139.333 52 140 54C146.333 63.8333 159.7 84.4 162.5 88C165.3 91.6 166.667 96.1667 167 98C169 100.5 173 106.3 173 109.5C173 112.7 170.333 117.5 169 119.5C168.833 121.667 168.4 126.4 168 128C167.6 129.6 165.833 130 165 130C165 131.5 164.8 134.6 164 135C163 135.5 160.5 134.5 159 134.5C157.5 134.5 156.5 136.5 155 136C153.5 135.5 145 117.5 144 116.5C143 115.5 140.5 118 140.5 119.5C140.5 121 149 137 149.5 139C150 141 147.5 143.5 146 144C144.5 144.5 142.5 143.5 140 141C137.5 138.5 134 139 132 139C130 139 127 136 127 133.5C127 131 130 131 130.5 125C131 119 123.5 115.5 118 111.5C112.5 107.5 100 102 98.5 102.5C97 103 96 106 97 109.5C97.8 112.3 118.333 141.667 128.5 156C135.167 164.167 148.8 183.3 150 194.5C151.2 205.7 144.833 216.167 141.5 220L146.5 225V234C146.5 239.5 168.5 248 168.5 257C168.5 266 161 267.5 161 270C161 272.5 171.5 276.5 171.5 280.5C171.5 283.7 167.167 286.167 165 287V290.5H87.5H6V287C4 287 0 285.7 0 280.5C0 274 9.5 273 9.5 270C9.5 267 2 266 2 257C2 248 21.5 236 23.5 234C25.1 232.4 25.1667 227.333 25 225L28.5 220H2L3.5 206L15.5 194.5L30.5 199.5L33 197L18 189.5L23.5 170.5H39.5V166.5H23.5L16.5 146.5L34.5 141L33 137.5L15.5 142.5L8 120L24.5 115.5L23.5 111.5L6.5 114.5Z" fill="black"/>
</svg>
